<?xml version="1.0" encoding="UTF-8"?>
<svg xmlns="http://www.w3.org/2000/svg" xmlns:xlink="http://www.w3.org/1999/xlink" width="152pt" height="189pt" viewBox="0 0 152 189" version="1.1">
<g id="surface1">
<path style=" stroke:none;fill-rule:nonzero;fill:rgb(0%,0%,0%);fill-opacity:1;" d="M 7.125 93.515625 L 7.125 183.75 L 150.8125 183.75 L 150.8125 162.421875 L 93.21875 162.421875 C 59.375 162.421875 35.625 161.765625 35.625 160.945312 C 35.625 160.125 39.664062 154.546875 44.53125 148.476562 C 52.367188 138.796875 55.335938 132.890625 52.488281 132.890625 C 52.011719 132.890625 46.789062 139.617188 40.96875 147.65625 C 31.707031 160.617188 29.804688 162.421875 26.71875 162.09375 C 23.632812 161.601562 23.15625 160.945312 23.15625 156.679688 C 23.15625 152.578125 23.632812 151.757812 26.480469 151.265625 C 29.210938 150.773438 29.570312 150.28125 28.382812 148.3125 C 26.480469 145.195312 29.804688 143.554688 33.25 146.015625 C 34.675781 147 36.101562 147.492188 36.457031 147 C 37.40625 145.6875 35.625 142.734375 33.726562 142.734375 C 32.65625 142.734375 32.0625 141.75 32.417969 140.601562 C 32.65625 139.617188 34.082031 138.796875 35.386719 139.125 C 36.8125 139.453125 38 138.796875 38 137.976562 C 38 136.992188 37.40625 136.171875 36.695312 136.171875 C 36.101562 136.171875 35.863281 135.351562 36.335938 134.367188 C 36.695312 133.382812 38.355469 132.890625 39.898438 133.382812 C 42.867188 134.039062 43.699219 132.234375 41.324219 130.265625 C 40.375 129.445312 40.613281 128.625 41.917969 127.148438 C 43.105469 126 43.460938 124.523438 42.75 122.882812 C 41.917969 121.078125 39.78125 123.210938 33.011719 132.5625 C 28.144531 138.960938 23.867188 144.375 23.394531 144.375 C 22.917969 144.375 22.5625 112.710938 22.5625 73.828125 L 22.5625 3.28125 L 7.125 3.28125 Z M 20.1875 9.679688 C 20.1875 10.5 19 11.648438 17.574219 11.976562 L 14.84375 12.632812 L 17.574219 13.945312 C 21.492188 15.75 20.898438 19.6875 16.625 19.6875 C 14.726562 19.6875 13.0625 20.34375 13.0625 21.328125 C 13.0625 22.148438 14.726562 22.96875 16.625 22.96875 C 20.898438 22.96875 21.492188 26.90625 17.574219 28.710938 L 14.84375 30.023438 L 17.574219 30.679688 C 20.898438 31.664062 21.019531 35.4375 17.695312 36.585938 C 14.960938 37.570312 15.675781 41.015625 18.523438 41.015625 C 21.613281 41.015625 19.59375 45.117188 16.269531 45.609375 C 11.875 46.265625 12.230469 49.21875 16.625 49.21875 C 20.304688 49.21875 21.492188 51.84375 18.40625 53.484375 C 17.457031 54.140625 16.625 55.125 16.625 55.945312 C 16.625 56.765625 17.457031 57.421875 18.40625 57.421875 C 21.136719 57.421875 20.542969 61.851562 17.574219 63.164062 L 14.84375 64.476562 L 17.574219 65.132812 C 19 65.460938 20.1875 66.773438 20.1875 68.085938 C 20.1875 69.234375 19 70.710938 17.574219 71.203125 L 14.84375 72.351562 L 17.574219 73.828125 C 21.136719 75.960938 20.304688 79.40625 16.269531 80.0625 C 12.351562 80.71875 13.179688 83.671875 17.335938 83.671875 C 20.425781 83.671875 21.257812 86.460938 18.40625 87.9375 C 16.148438 89.25 16.148438 91.875 18.40625 91.875 C 19.355469 91.875 20.1875 93.023438 20.1875 94.335938 C 20.1875 95.648438 19.117188 96.796875 17.8125 96.796875 C 16.507812 96.796875 15.4375 97.453125 15.4375 98.4375 C 15.4375 99.257812 16.507812 100.078125 17.8125 100.078125 C 19.117188 100.078125 20.1875 101.226562 20.1875 102.539062 C 20.1875 103.851562 19.355469 105 18.40625 105 C 16.148438 105 16.148438 107.625 18.40625 108.9375 C 21.257812 110.414062 20.425781 113.203125 17.335938 113.203125 C 13.179688 113.203125 12.351562 116.15625 16.269531 116.8125 C 20.304688 117.46875 21.019531 120.421875 17.574219 122.71875 L 14.84375 124.523438 L 17.574219 125.671875 C 19 126.164062 20.1875 127.640625 20.1875 128.789062 C 20.1875 130.101562 19 131.414062 17.574219 131.742188 L 14.84375 132.398438 L 17.574219 133.710938 C 20.542969 135.023438 21.136719 139.453125 18.40625 139.453125 C 17.457031 139.453125 16.625 140.109375 16.625 141.09375 C 16.625 141.914062 17.457031 142.734375 18.40625 142.734375 C 19.355469 142.734375 20.1875 143.882812 20.1875 145.195312 C 20.1875 146.835938 19 147.65625 16.625 147.65625 C 12.230469 147.65625 11.875 150.609375 16.269531 151.265625 C 19.59375 151.757812 21.613281 155.859375 18.523438 155.859375 C 15.675781 155.859375 14.960938 159.304688 17.695312 160.289062 C 20.898438 161.4375 20.898438 163.898438 17.574219 165.539062 L 14.960938 166.851562 L 17.8125 168.984375 C 20.542969 170.953125 20.542969 171.117188 18.289062 173.414062 C 16.742188 175.21875 16.507812 176.203125 17.574219 176.695312 C 20.664062 178.335938 18.761719 180.632812 14.605469 180.140625 L 10.09375 179.648438 L 9.738281 93.84375 L 9.5 8.203125 L 14.84375 8.203125 C 17.8125 8.203125 20.1875 8.859375 20.1875 9.679688 Z M 147.25 173.085938 C 147.25 181.289062 146.539062 182.4375 144.875 176.859375 L 143.804688 173.085938 L 142.976562 176.859375 C 141.90625 181.78125 139.648438 180.632812 139.175781 175.054688 C 138.9375 172.59375 138.34375 170.625 137.75 170.625 C 137.15625 170.625 136.5625 172.59375 136.324219 175.054688 C 135.851562 180.632812 133.59375 181.78125 132.523438 176.859375 L 131.695312 173.085938 L 130.625 176.695312 C 129.4375 180.960938 127.0625 181.78125 127.0625 178.171875 C 127.0625 174.070312 124.570312 173.414062 123.855469 177.023438 C 123.023438 181.78125 120.648438 180.46875 120.175781 175.054688 C 119.699219 168.984375 117.5625 169.476562 117.5625 175.546875 C 117.5625 181.125 115.304688 182.273438 114.355469 177.1875 C 114 175.382812 113.289062 173.90625 112.695312 173.90625 C 112.101562 173.90625 111.625 175.382812 111.625 177.1875 C 111.625 178.992188 110.792969 180.46875 109.84375 180.46875 C 108.894531 180.46875 108.0625 178.992188 108.0625 177.1875 C 108.0625 172.921875 106.164062 172.921875 105.332031 177.1875 C 104.617188 180.960938 102.125 181.617188 102.125 178.171875 C 102.125 174.070312 99.632812 173.414062 98.917969 177.023438 C 98.5625 178.992188 97.613281 180.304688 96.898438 179.976562 C 95.710938 179.484375 95.476562 178.828125 95.117188 173.085938 C 94.882812 168.492188 92.625 170.625 92.625 175.546875 C 92.625 181.125 90.367188 182.273438 89.417969 177.1875 C 89.0625 175.382812 88.351562 173.90625 87.757812 173.90625 C 87.164062 173.90625 86.6875 175.382812 86.6875 177.1875 C 86.6875 178.992188 85.855469 180.46875 84.90625 180.46875 C 83.957031 180.46875 83.125 178.992188 83.125 177.1875 C 83.125 172.921875 81.226562 172.921875 80.394531 177.1875 C 79.5625 181.617188 77.664062 181.289062 76.710938 176.695312 L 75.882812 173.085938 L 74.8125 176.695312 C 73.269531 182.109375 71.25 181.289062 71.25 175.546875 C 71.25 172.265625 70.65625 170.625 69.46875 170.625 C 68.28125 170.625 67.6875 172.265625 67.6875 175.546875 C 67.6875 181.125 65.429688 182.273438 64.480469 177.1875 C 64.125 175.382812 63.414062 173.90625 62.820312 173.90625 C 62.226562 173.90625 61.75 175.382812 61.75 177.1875 C 61.75 181.617188 59.492188 181.289062 58.304688 176.859375 L 57.355469 173.25 L 55.929688 176.859375 C 54.148438 181.453125 52.726562 181.453125 51.773438 176.695312 L 50.945312 173.085938 L 49.875 176.695312 C 48.332031 182.109375 46.3125 181.289062 46.3125 175.382812 C 46.3125 169.148438 43.460938 169.640625 42.988281 176.039062 C 42.511719 181.453125 40.730469 181.78125 39.1875 176.695312 L 38.117188 173.085938 L 37.289062 176.695312 C 36.929688 178.828125 36.101562 180.46875 35.507812 180.46875 C 34.792969 180.46875 33.84375 178.828125 33.25 176.695312 L 32.179688 173.085938 L 31.351562 176.695312 C 30.398438 181.289062 27.3125 181.617188 27.3125 177.1875 C 27.3125 175.382812 26.835938 173.90625 26.125 173.90625 C 25.53125 173.90625 24.9375 175.382812 24.9375 177.351562 C 24.9375 179.15625 24.460938 180.140625 23.75 179.648438 C 22.445312 178.5 22.085938 168.492188 23.394531 166.851562 C 23.75 166.195312 51.894531 165.703125 85.738281 165.703125 L 147.25 165.703125 Z M 147.25 173.085938 "/>
<path style=" stroke:none;fill-rule:nonzero;fill:rgb(0%,0%,0%);fill-opacity:1;" d="M 54.269531 45.445312 L 38 58.078125 L 38 113.203125 L 44.292969 118.78125 C 47.617188 121.734375 55.101562 128.132812 60.800781 132.890625 L 71.25 141.585938 L 104.5 114.023438 L 104.261719 85.640625 L 103.90625 57.257812 L 87.164062 45.117188 L 70.539062 32.976562 Z M 68.875 59.882812 C 68.875 71.203125 68.519531 80.390625 68.164062 80.390625 C 67.09375 80.390625 42.867188 60.046875 42.867188 59.0625 C 42.75 58.078125 66.617188 39.539062 68.042969 39.375 C 68.519531 39.375 68.875 48.5625 68.875 59.882812 Z M 86.804688 48.5625 C 94.167969 53.484375 99.632812 58.242188 99.039062 59.0625 C 98.445312 59.71875 92.269531 65.296875 85.261719 71.203125 L 72.4375 82.03125 L 72.4375 60.703125 C 72.4375 49.054688 72.675781 39.375 73.03125 39.375 C 73.386719 39.375 79.5625 43.476562 86.804688 48.5625 Z M 57.355469 76.289062 C 64.601562 82.359375 68.875 86.953125 68.875 88.59375 C 68.875 90.5625 64.71875 94.007812 55.574219 99.914062 C 48.210938 104.507812 41.800781 108.28125 41.324219 108.28125 C 40.730469 108.28125 40.375 97.78125 40.375 85.148438 L 40.375 62.015625 L 43.105469 64.3125 C 44.53125 65.625 50.945312 71.039062 57.355469 76.289062 Z M 101.53125 107.953125 C 100.460938 109.429688 72.4375 91.546875 72.4375 89.25 C 72.4375 88.101562 78.96875 81.703125 87.042969 74.976562 L 101.53125 63 L 101.886719 84.984375 C 102.007812 97.125 101.886719 107.460938 101.53125 107.953125 Z M 68.875 115.664062 C 68.875 126 68.636719 134.53125 68.398438 134.53125 C 67.210938 134.53125 43.9375 114.1875 43.9375 113.203125 C 43.9375 112.054688 66.023438 97.125 68.042969 96.960938 C 68.519531 96.796875 68.875 105.328125 68.875 115.664062 Z M 84.3125 103.359375 C 102.007812 114.023438 101.648438 112.054688 87.636719 123.375 C 80.988281 128.789062 74.695312 133.710938 73.980469 134.039062 C 72.792969 134.695312 72.4375 130.429688 72.4375 115.828125 C 72.4375 105.328125 72.554688 96.796875 72.792969 96.796875 C 73.03125 96.796875 78.136719 99.75 84.3125 103.359375 Z M 84.3125 103.359375 "/>
<path style=" stroke:none;fill-rule:nonzero;fill:rgb(0%,0%,0%);fill-opacity:1;" d="M 96.78125 45.9375 C 97.730469 48.070312 109.132812 55.78125 111.386719 55.78125 C 114.949219 55.78125 111.742188 52.007812 105.09375 48.234375 C 97.492188 43.96875 95.710938 43.476562 96.78125 45.9375 Z M 96.78125 45.9375 "/>
</g>
</svg>
