<?xml version="1.0" encoding="UTF-8"?>
<svg xmlns="http://www.w3.org/2000/svg" xmlns:xlink="http://www.w3.org/1999/xlink" width="152pt" height="189pt" viewBox="0 0 152 189" version="1.1">
<g id="surface1">
<path style=" stroke:none;fill-rule:nonzero;fill:rgb(0%,0%,0%);fill-opacity:1;" d="M 33.882812 22.695312 C 25.910156 25.351562 17.273438 28.402344 15.015625 29.199219 L 10.628906 30.660156 L 10.628906 92.773438 C 10.628906 150.246094 10.761719 155.023438 13.019531 156.878906 C 14.214844 157.941406 21.921875 162.453125 30.027344 166.96875 C 38.265625 171.347656 45.972656 175.59375 47.300781 176.523438 C 49.292969 177.585938 60.585938 176.65625 95.132812 172.808594 C 120.113281 169.886719 141.238281 167.101562 142.035156 166.703125 C 144.292969 165.242188 144.027344 25.351562 141.902344 24.554688 C 140.042969 23.890625 52.351562 17.121094 49.957031 17.386719 C 49.160156 17.519531 41.984375 19.910156 33.882812 22.695312 Z M 100.183594 25.351562 C 120.511719 26.808594 137.785156 28.269531 138.316406 28.667969 C 138.980469 29.066406 139.511719 59.460938 139.511719 96.226562 L 139.511719 163.117188 L 135.257812 163.78125 C 128.484375 164.976562 58.59375 172.542969 55.007812 172.542969 L 51.816406 172.542969 L 51.816406 21.234375 L 57.53125 21.898438 C 60.585938 22.296875 79.851562 23.757812 100.183594 25.351562 Z M 46.503906 97.421875 L 46.503906 171.082031 L 35.476562 164.976562 C 29.496094 161.660156 22.320312 157.675781 19.53125 156.085938 L 14.617188 153.296875 L 14.882812 93.570312 L 15.28125 33.84375 L 29.230469 28.933594 C 36.9375 26.28125 43.980469 24.023438 44.910156 24.023438 C 46.105469 23.890625 46.503906 39.417969 46.503906 97.421875 Z M 46.503906 97.421875 "/>
<path style=" stroke:none;fill-rule:nonzero;fill:rgb(0%,0%,0%);fill-opacity:1;" d="M 64.175781 41.941406 C 61.648438 43.003906 61.648438 134.449219 64.175781 136.441406 C 66.167969 138.167969 122.105469 134.714844 127.285156 132.726562 L 130.210938 131.398438 L 130.210938 89.722656 C 130.210938 58 129.8125 47.78125 128.617188 46.851562 C 127.683594 46.054688 116.390625 44.726562 103.636719 43.933594 C 90.882812 43.003906 77.0625 42.074219 73.078125 41.808594 C 69.089844 41.410156 64.972656 41.542969 64.175781 41.941406 Z M 76 49.640625 C 76.265625 51.496094 77.460938 52.558594 79.851562 52.824219 C 82.511719 53.089844 83.574219 54.152344 84.238281 56.804688 C 84.636719 58.796875 86.496094 62.113281 88.355469 64.371094 L 91.8125 68.351562 L 95.132812 64.371094 C 96.992188 62.113281 98.984375 59.0625 99.648438 57.335938 C 100.582031 55.214844 102.042969 54.417969 104.964844 54.417969 C 108.152344 54.417969 108.949219 53.886719 108.949219 51.761719 C 108.949219 49.242188 109.617188 48.976562 117.320312 49.375 L 125.558594 49.773438 L 125.957031 89.191406 C 126.222656 123.832031 125.957031 128.742188 124.230469 128.742188 C 122.636719 128.742188 122.238281 126.886719 122.238281 119.453125 L 122.238281 110.160156 L 114 110.160156 L 117.054688 107.507812 L 120.246094 104.851562 L 116.523438 106.179688 C 114.398438 106.84375 109.484375 107.507812 105.496094 107.507812 L 98.320312 107.507812 L 98.320312 84.148438 L 104.035156 83.75 C 110.945312 83.484375 113.46875 85.738281 113.46875 92.242188 C 113.46875 96.890625 110.28125 101.667969 106.425781 102.597656 C 105.230469 102.996094 106.292969 102.996094 108.816406 102.730469 C 117.453125 101.933594 121.839844 93.304688 117.71875 85.210938 C 115.328125 80.429688 113.335938 79.636719 104.832031 79.636719 C 99.25 79.636719 98.320312 79.238281 98.320312 76.980469 C 98.320312 75.253906 97.390625 74.324219 95.664062 74.324219 C 92.476562 74.324219 92.34375 76.050781 95.132812 80.296875 C 97.125 83.21875 96.992188 83.75 94.46875 86.402344 C 91.8125 89.324219 91.8125 89.324219 94.335938 92.640625 C 97.921875 97.023438 97.65625 100.339844 93.671875 104.1875 C 88.621094 109.363281 74.40625 108.570312 76.398438 103.261719 C 77.460938 100.605469 73.078125 98.746094 71.484375 101.136719 C 69.488281 104.320312 70.417969 108.4375 73.476562 109.894531 C 76.132812 111.222656 76 111.355469 71.484375 111.355469 L 66.433594 111.488281 L 66.433594 79.238281 C 66.433594 61.453125 66.699219 46.585938 67.097656 46.1875 C 67.496094 45.921875 69.488281 45.789062 71.617188 46.1875 C 74.40625 46.585938 75.734375 47.515625 76 49.640625 Z M 92.34375 110.027344 C 91.945312 110.824219 90.214844 111.488281 88.621094 111.488281 C 85.832031 111.355469 85.832031 111.355469 89.019531 109.496094 C 92.609375 107.640625 93.804688 107.773438 92.34375 110.027344 Z M 120.246094 120.78125 L 120.246094 129.40625 L 100.980469 131 C 90.351562 131.796875 79.453125 132.59375 76.664062 132.59375 L 71.617188 132.726562 L 72.015625 123.035156 L 72.414062 113.480469 L 91.679688 112.683594 C 102.308594 112.285156 113.070312 112.019531 115.59375 112.019531 L 120.246094 112.152344 Z M 70.417969 123.433594 C 70.417969 130.867188 70.019531 132.726562 68.425781 132.726562 C 66.832031 132.726562 66.433594 130.867188 66.433594 123.433594 C 66.433594 116 66.832031 114.144531 68.425781 114.144531 C 70.019531 114.144531 70.417969 116 70.417969 123.433594 Z M 70.417969 123.433594 "/>
<path style=" stroke:none;fill-rule:nonzero;fill:rgb(0%,0%,0%);fill-opacity:1;" d="M 73.476562 76.316406 C 70.949219 78.042969 70.816406 78.839844 72.015625 82.289062 C 73.078125 85.609375 73.742188 86.003906 75.734375 84.945312 C 79.71875 82.820312 84.105469 83.21875 83.175781 85.738281 C 82.644531 87.332031 83.175781 87.730469 85.433594 87.332031 C 87.558594 87.066406 88.355469 86.003906 88.355469 83.617188 C 88.355469 80.5625 87.957031 80.296875 82.777344 80.5625 C 76.398438 80.828125 74.671875 77.777344 80.117188 75.652344 C 83.042969 74.457031 83.042969 74.457031 79.71875 74.457031 C 77.859375 74.324219 75.070312 75.253906 73.476562 76.316406 Z M 73.476562 76.316406 "/>
<path style=" stroke:none;fill-rule:nonzero;fill:rgb(0%,0%,0%);fill-opacity:1;" d="M 74.671875 91.050781 C 74.9375 93.703125 76.132812 94.898438 79.71875 96.09375 C 83.308594 97.289062 84.238281 98.214844 84.105469 100.472656 C 83.839844 102.996094 84.238281 103.261719 86.761719 102.332031 C 92.476562 100.207031 90.484375 92.90625 84.238281 92.90625 C 81.980469 92.90625 81.050781 92.109375 81.050781 90.253906 C 81.050781 88.261719 80.117188 87.597656 77.59375 87.597656 C 74.671875 87.597656 74.273438 88.128906 74.671875 91.050781 Z M 74.671875 91.050781 "/>
<path style=" stroke:none;fill-rule:nonzero;fill:rgb(0%,0%,0%);fill-opacity:1;" d="M 74.804688 151.703125 C 74.273438 152.5 74.671875 152.632812 75.734375 151.96875 C 77.0625 151.171875 77.328125 151.4375 76.664062 153.03125 C 76.265625 154.226562 76.53125 155.6875 77.328125 156.085938 C 78.390625 156.746094 77.992188 157.410156 76.265625 158.207031 C 73.875 159.269531 73.875 159.269531 76.398438 158.871094 C 78.257812 158.605469 78.921875 157.675781 78.789062 155.554688 C 78.523438 153.695312 78.921875 152.765625 79.71875 153.296875 C 80.515625 153.695312 81.050781 155.289062 81.050781 156.746094 C 81.050781 159.667969 83.972656 160.066406 86.363281 157.277344 C 89.550781 153.429688 87.425781 150.640625 81.316406 150.511719 C 78.125 150.511719 75.203125 151.039062 74.804688 151.703125 Z M 85.832031 152.765625 C 86.230469 153.5625 85.699219 155.15625 84.503906 156.351562 C 82.511719 158.339844 82.378906 158.207031 82.378906 154.890625 C 82.378906 151.304688 84.105469 150.113281 85.832031 152.765625 Z M 85.832031 152.765625 "/>
<path style=" stroke:none;fill-rule:nonzero;fill:rgb(0%,0%,0%);fill-opacity:1;" d="M 91.679688 153.960938 L 91.679688 157.941406 L 94.335938 155.289062 C 95.796875 153.828125 96.992188 151.96875 96.992188 151.304688 C 96.992188 150.511719 95.796875 149.980469 94.335938 149.980469 C 92.210938 149.980469 91.679688 150.90625 91.679688 153.960938 Z M 91.679688 153.960938 "/>
<path style=" stroke:none;fill-rule:nonzero;fill:rgb(0%,0%,0%);fill-opacity:1;" d="M 112.671875 153.296875 C 112.9375 155.15625 113.601562 156.613281 114.132812 156.613281 C 114.53125 156.613281 114.929688 155.15625 114.929688 153.296875 C 114.929688 151.4375 114.265625 149.980469 113.46875 149.980469 C 112.539062 149.980469 112.273438 151.304688 112.671875 153.296875 Z M 112.671875 153.296875 "/>
<path style=" stroke:none;fill-rule:nonzero;fill:rgb(0%,0%,0%);fill-opacity:1;" d="M 116.523438 151.835938 C 116.125 152.898438 116.789062 154.492188 117.984375 155.554688 C 119.316406 156.613281 119.714844 156.613281 119.183594 155.6875 C 118.648438 154.890625 118.785156 153.828125 119.582031 153.296875 C 121.574219 152.101562 121.175781 149.980469 119.050781 149.980469 C 117.984375 149.980469 116.921875 150.773438 116.523438 151.835938 Z M 116.523438 151.835938 "/>
<path style=" stroke:none;fill-rule:nonzero;fill:rgb(0%,0%,0%);fill-opacity:1;" d="M 122.238281 152.632812 C 122.238281 154.09375 122.503906 155.289062 122.769531 155.289062 C 123.035156 155.289062 123.566406 154.09375 123.964844 152.632812 C 124.363281 151.171875 124.097656 149.980469 123.433594 149.980469 C 122.769531 149.980469 122.238281 151.171875 122.238281 152.632812 Z M 122.238281 152.632812 "/>
<path style=" stroke:none;fill-rule:nonzero;fill:rgb(0%,0%,0%);fill-opacity:1;" d="M 98.453125 154.890625 L 98.453125 158.605469 L 99.917969 155.289062 C 101.113281 152.5 101.511719 152.367188 101.910156 154.226562 C 102.308594 155.554688 103.105469 156.613281 103.769531 156.613281 C 106.558594 156.613281 104.167969 151.96875 101.246094 151.570312 C 98.851562 151.171875 98.320312 151.703125 98.453125 154.890625 Z M 98.453125 154.890625 "/>
<path style=" stroke:none;fill-rule:nonzero;fill:rgb(0%,0%,0%);fill-opacity:1;" d="M 106.425781 154.226562 C 106.425781 157.011719 106.558594 157.011719 107.488281 154.625 C 108.550781 152.101562 108.550781 152.101562 110.148438 154.625 C 111.742188 157.277344 111.742188 157.277344 111.34375 154.625 C 110.679688 150.640625 106.292969 150.246094 106.425781 154.226562 Z M 106.425781 154.226562 "/>
<path style=" stroke:none;fill-rule:nonzero;fill:rgb(0%,0%,0%);fill-opacity:1;" d="M 27.238281 43.933594 C 24.316406 44.59375 21.125 46.1875 20.328125 47.382812 C 19 49.109375 18.601562 59.59375 18.601562 89.191406 C 18.601562 134.316406 17.804688 131.53125 30.824219 135.910156 C 43.449219 140.023438 42.648438 143.34375 42.25 89.988281 L 41.851562 43.136719 L 37.203125 42.871094 C 34.679688 42.738281 30.160156 43.269531 27.238281 43.933594 Z M 38.53125 80.828125 L 38.53125 115.203125 L 34.546875 116.132812 C 30.824219 116.929688 30.558594 117.328125 30.558594 123.566406 C 30.558594 130.070312 30.027344 130.734375 26.042969 129.273438 C 24.183594 128.609375 23.917969 123.699219 23.917969 88.792969 L 23.917969 49.109375 L 26.972656 48.578125 C 34.28125 46.984375 35.34375 46.71875 36.9375 46.585938 C 38.132812 46.453125 38.53125 54.152344 38.53125 80.828125 Z M 38.53125 125.558594 C 38.53125 132.460938 38.398438 132.859375 35.609375 132.460938 C 32.949219 132.0625 32.550781 131.132812 32.152344 125.027344 C 31.753906 118.390625 31.886719 118.125 35.078125 118.125 C 38.398438 118.125 38.53125 118.523438 38.53125 125.558594 Z M 38.53125 125.558594 "/>
</g>
</svg>
