<?xml version="1.0" encoding="UTF-8"?>
<svg xmlns="http://www.w3.org/2000/svg" xmlns:xlink="http://www.w3.org/1999/xlink" width="152pt" height="189pt" viewBox="0 0 152 189" version="1.1">
<g id="surface1">
<path style=" stroke:none;fill-rule:nonzero;fill:rgb(0%,0%,0%);fill-opacity:1;" d="M 54.980469 48.296875 L 35.625 62.054688 L 35.625 93.601562 C 35.625 121.117188 35.863281 125.453125 37.523438 126.199219 C 40.613281 127.695312 42.75 127.246094 42.039062 125.152344 C 41.679688 123.957031 46.429688 120.367188 56.050781 114.6875 C 64.125 110.050781 71.367188 106.164062 72.199219 106.164062 C 73.148438 106.164062 73.625 108.703125 73.625 113.640625 C 73.625 119.621094 73.980469 120.816406 75.40625 120.21875 C 76.59375 119.621094 77.1875 117.226562 77.1875 112.59375 C 77.1875 106.011719 77.304688 105.863281 80.394531 106.910156 C 85.617188 108.554688 85.738281 108.554688 86.332031 106.460938 C 86.6875 105.414062 85.144531 103.769531 82.769531 102.425781 C 74.21875 97.9375 74.929688 96.742188 95.476562 81.191406 C 102.71875 75.660156 109.84375 70.277344 111.386719 69.082031 L 114 66.988281 L 114 93.152344 C 114 119.171875 114 119.320312 111.507812 118.574219 C 109.25 117.824219 109.011719 118.125 109.726562 121.5625 C 110.199219 124.40625 109.960938 125.601562 108.300781 126.199219 C 106.28125 127.097656 102.71875 132.777344 103.550781 133.976562 C 103.789062 134.273438 106.875 132.328125 110.4375 129.636719 L 116.96875 124.703125 L 117.324219 93.902344 L 117.5625 63.101562 L 113.167969 59.808594 C 107.46875 55.472656 75.40625 34.390625 74.695312 34.390625 C 74.457031 34.390625 65.550781 40.671875 54.980469 48.296875 Z M 73.625 64.144531 C 73.625 76.257812 73.386719 86.574219 72.914062 87.023438 C 72.082031 88.21875 42.511719 65.492188 42.394531 63.546875 C 42.394531 61.753906 71.488281 40.519531 72.792969 41.417969 C 73.269531 41.71875 73.625 52.035156 73.625 64.144531 Z M 95.238281 51.585938 C 103.195312 56.820312 109.960938 61.605469 110.082031 62.351562 C 110.4375 63.546875 79.5625 88.21875 77.78125 88.21875 C 77.425781 88.21875 77.1875 77.453125 77.1875 64.296875 C 77.1875 44.257812 77.425781 40.519531 78.851562 41.269531 C 79.800781 41.71875 87.164062 46.351562 95.238281 51.585938 Z M 57 81.191406 C 66.023438 88.21875 73.148438 94.800781 73.386719 96.144531 C 73.742188 98.238281 70.0625 101.078125 56.761719 109.003906 C 47.382812 114.6875 39.425781 119.023438 38.949219 118.574219 C 38.355469 118.273438 38 106.910156 38 93.304688 C 38 74.613281 38.355469 68.78125 39.542969 68.78125 C 40.257812 68.78125 48.210938 74.464844 57 81.191406 Z M 57 81.191406 "/>
<path style=" stroke:none;fill-rule:nonzero;fill:rgb(0%,0%,0%);fill-opacity:1;" d="M 58.542969 59.960938 C 53.082031 62.5 48.6875 65.042969 48.6875 65.640625 C 48.6875 66.089844 49.875 67.4375 51.300781 68.632812 C 53.4375 70.277344 54.863281 70.128906 61.988281 67.136719 C 69.351562 63.847656 70.0625 63.25 70.0625 59.511719 C 70.0625 57.117188 69.707031 55.324219 69.230469 55.472656 C 68.636719 55.472656 63.886719 57.566406 58.542969 59.960938 Z M 58.542969 59.960938 "/>
<path style=" stroke:none;fill-rule:nonzero;fill:rgb(0%,0%,0%);fill-opacity:1;" d="M 80.75 55.472656 C 80.75 59.808594 80.867188 59.960938 84.667969 59.0625 C 93.21875 56.820312 93.457031 56.671875 88.945312 53.679688 C 82.769531 49.492188 80.75 49.941406 80.75 55.472656 Z M 80.75 55.472656 "/>
<path style=" stroke:none;fill-rule:nonzero;fill:rgb(0%,0%,0%);fill-opacity:1;" d="M 102.125 47.699219 C 102.125 50.988281 111.863281 55.324219 119.460938 55.324219 C 132.289062 55.324219 142.5 62.054688 142.5 70.277344 C 142.5 72.519531 141.074219 77.003906 139.414062 80.144531 C 137.15625 84.183594 136.5625 86.574219 137.394531 88.070312 C 139.414062 92.109375 141.195312 91.507812 144.28125 85.527344 C 152.59375 69.679688 149.625 57.417969 135.492188 50.6875 C 127.539062 46.949219 102.125 44.558594 102.125 47.699219 Z M 102.125 47.699219 "/>
<path style=" stroke:none;fill-rule:nonzero;fill:rgb(0%,0%,0%);fill-opacity:1;" d="M 26.242188 81.640625 C 4.511719 100.183594 -0.476562 119.320312 13.179688 131.882812 C 24.226562 142.050781 56.40625 141.152344 84.667969 130.085938 C 90.605469 127.695312 95.710938 126.050781 95.949219 126.347656 C 96.1875 126.648438 95.832031 128.144531 95.117188 129.789062 C 94.167969 132.179688 94.40625 132.929688 96.78125 134.273438 C 99.511719 135.917969 99.867188 135.46875 103.90625 126.945312 C 106.164062 122.011719 108.0625 117.675781 108.0625 117.378906 C 108.0625 117.078125 104.5 114.238281 100.226562 111.246094 C 92.507812 105.863281 92.269531 105.714844 90.605469 108.554688 C 89.179688 111.097656 89.300781 111.695312 92.03125 114.535156 L 95.117188 117.675781 L 84.667969 121.5625 C 55.457031 132.777344 31.113281 134.125 17.574219 125.453125 C 12.707031 122.3125 11.042969 117.824219 12.351562 111.246094 C 13.179688 107.359375 23.988281 92.855469 30.042969 87.472656 C 32.65625 85.230469 33.367188 83.585938 33.011719 80.296875 L 32.65625 76.257812 Z M 26.242188 81.640625 "/>
<path style=" stroke:none;fill-rule:nonzero;fill:rgb(0%,0%,0%);fill-opacity:1;" d="M 75.167969 137.113281 C 74.335938 137.5625 73.625 139.65625 73.625 141.898438 C 73.625 148.03125 72.675781 148.328125 67.09375 144.292969 C 62.105469 140.554688 59.375 139.65625 59.375 141.75 C 59.375 142.347656 63.175781 145.636719 67.804688 149.226562 L 76.238281 155.507812 L 83.480469 150.125 C 96.542969 140.402344 96.542969 140.402344 95.238281 138.757812 C 94.40625 137.710938 91.554688 138.910156 86.332031 142.648438 C 82.054688 145.636719 78.257812 148.03125 77.898438 148.03125 C 77.664062 148.03125 77.1875 145.488281 76.949219 142.347656 C 76.710938 138.460938 76.117188 136.816406 75.167969 137.113281 Z M 75.167969 137.113281 "/>
</g>
</svg>
