<?xml version="1.0" encoding="UTF-8"?>
<svg xmlns="http://www.w3.org/2000/svg" xmlns:xlink="http://www.w3.org/1999/xlink" width="152pt" height="189pt" viewBox="0 0 152 189" version="1.1">
<g id="surface1">
<path style=" stroke:none;fill-rule:nonzero;fill:rgb(0%,0%,0%);fill-opacity:1;" d="M 46.042969 13.746094 C 44.0625 15.25 41.03125 19.757812 39.164062 23.625 C 36.367188 29.851562 36.019531 32.429688 36.25 43.8125 C 36.367188 51.117188 36.019531 59.492188 35.550781 62.714844 C 35.085938 66.148438 35.320312 70.445312 36.367188 73.882812 C 42.777344 96.003906 45.460938 106.3125 45.460938 109.105469 C 45.460938 111.253906 46.277344 111.898438 48.140625 110.824219 C 49.539062 110.179688 54.085938 109.535156 58.28125 109.535156 L 65.859375 109.535156 L 69.238281 96.003906 C 71.105469 88.699219 73.320312 81.183594 74.136719 79.464844 C 76.117188 75.171875 77.398438 65.289062 76.351562 62.070312 C 75.882812 60.78125 75.417969 52.621094 75.300781 43.8125 C 75.183594 30.28125 74.835938 27.492188 72.269531 22.550781 C 70.636719 19.328125 67.722656 15.25 65.625 13.746094 C 60.847656 9.878906 50.707031 10.09375 46.042969 13.746094 Z M 46.042969 13.746094 "/>
<path style=" stroke:none;fill-rule:nonzero;fill:rgb(0%,0%,0%);fill-opacity:1;" d="M 76.933594 21.476562 C 78.097656 25.558594 79.496094 25.773438 107.007812 26.203125 L 135.796875 26.847656 L 136.148438 75.601562 L 136.378906 124.566406 L 107.589844 124.78125 L 78.679688 124.996094 L 83.34375 129.078125 C 87.539062 132.515625 90.921875 133.160156 114.582031 133.160156 L 141.042969 133.160156 L 140.808594 75.601562 L 140.460938 18.253906 L 108.054688 17.613281 C 76 17.183594 75.648438 17.183594 76.933594 21.476562 Z M 76.933594 21.476562 "/>
<path style=" stroke:none;fill-rule:nonzero;fill:rgb(0%,0%,0%);fill-opacity:1;" d="M 124.722656 40.59375 C 124.722656 45.316406 124.375 50.472656 124.023438 52.40625 C 123.558594 54.550781 123.90625 55.839844 125.074219 55.839844 C 126.472656 55.839844 126.707031 54.121094 126.238281 48.109375 C 125.539062 40.808594 125.773438 40.378906 128.105469 41.878906 C 129.96875 42.953125 130.550781 42.308594 130.550781 39.734375 C 130.550781 37.15625 129.851562 36.511719 128.222656 37.585938 C 126.472656 38.660156 126.121094 38.230469 126.589844 35.652344 C 126.9375 33.71875 126.707031 32.214844 126.007812 32.214844 C 125.308594 32.214844 124.722656 35.867188 124.722656 40.59375 Z M 124.722656 40.59375 "/>
<path style=" stroke:none;fill-rule:nonzero;fill:rgb(0%,0%,0%);fill-opacity:1;" d="M 120.761719 38.445312 C 120.292969 39.519531 120.527344 41.023438 121.109375 41.664062 C 121.691406 42.523438 122.507812 42.09375 122.859375 41.023438 C 123.324219 39.949219 123.09375 38.445312 122.507812 37.800781 C 121.925781 36.941406 121.109375 37.371094 120.761719 38.445312 Z M 120.761719 38.445312 "/>
<path style=" stroke:none;fill-rule:nonzero;fill:rgb(0%,0%,0%);fill-opacity:1;" d="M 94.183594 46.605469 C 94.882812 47.035156 96.28125 47.035156 97.097656 46.605469 C 97.796875 45.960938 97.214844 45.53125 95.582031 45.53125 C 93.949219 45.53125 93.367188 45.960938 94.183594 46.605469 Z M 94.183594 46.605469 "/>
<path style=" stroke:none;fill-rule:nonzero;fill:rgb(0%,0%,0%);fill-opacity:1;" d="M 100.246094 48.96875 C 100.246094 52.621094 90.453125 61.855469 87.421875 61.210938 C 85.792969 60.996094 85.441406 61.210938 86.605469 61.640625 C 88.238281 62.5 88.589844 65.289062 88.589844 80.539062 C 88.589844 92.78125 88.121094 98.796875 87.191406 99.441406 C 86.375 100.085938 86.722656 100.726562 88.121094 100.726562 C 89.40625 100.941406 93.484375 97.9375 97.214844 94.285156 L 103.859375 87.628906 L 103.507812 68.082031 C 103.277344 54.980469 102.691406 48.324219 101.761719 47.679688 C 100.945312 47.25 100.246094 47.894531 100.246094 48.96875 Z M 100.246094 48.96875 "/>
<path style=" stroke:none;fill-rule:nonzero;fill:rgb(0%,0%,0%);fill-opacity:1;" d="M 115.632812 105.667969 L 115.980469 121.347656 L 134.632812 121.347656 L 134.980469 105.667969 L 135.332031 90.203125 L 115.28125 90.203125 Z M 133.464844 106.3125 L 133.464844 117.050781 L 125.65625 117.695312 L 117.730469 118.339844 L 117.730469 110.609375 C 117.730469 106.527344 118.3125 103.089844 118.894531 103.089844 C 120.527344 103.089844 120.292969 97.292969 118.664062 95.789062 C 117.847656 95.144531 120.878906 94.929688 125.308594 95.144531 L 133.464844 95.574219 Z M 133.464844 106.3125 "/>
<path style=" stroke:none;fill-rule:nonzero;fill:rgb(0%,0%,0%);fill-opacity:1;" d="M 127.054688 108.460938 C 127.054688 111.46875 127.753906 113.828125 128.570312 113.828125 C 129.386719 113.828125 130.085938 111.46875 130.085938 108.460938 C 130.085938 105.453125 129.386719 103.089844 128.570312 103.089844 C 127.753906 103.089844 127.054688 105.453125 127.054688 108.460938 Z M 127.054688 108.460938 "/>
<path style=" stroke:none;fill-rule:nonzero;fill:rgb(0%,0%,0%);fill-opacity:1;" d="M 81.363281 98.152344 C 82.0625 98.582031 83.460938 98.582031 84.277344 98.152344 C 84.976562 97.507812 84.394531 97.078125 82.761719 97.078125 C 81.128906 97.078125 80.546875 97.507812 81.363281 98.152344 Z M 81.363281 98.152344 "/>
<path style=" stroke:none;fill-rule:nonzero;fill:rgb(0%,0%,0%);fill-opacity:1;" d="M 41.378906 123.28125 C 39.515625 126.070312 32.753906 132.515625 26.460938 137.453125 C 10.023438 150.554688 9.324219 151.84375 9.324219 168.8125 L 9.324219 182.558594 L 102.578125 182.558594 L 102.578125 168.8125 C 102.578125 151.84375 101.878906 150.554688 85.441406 137.453125 C 79.148438 132.515625 72.734375 126.070312 70.988281 123.28125 C 68.308594 118.554688 67.140625 118.125 56.417969 118.125 C 46.160156 118.339844 44.527344 118.984375 41.378906 123.28125 Z M 41.378906 123.28125 "/>
<path style=" stroke:none;fill-rule:nonzero;fill:rgb(0%,0%,0%);fill-opacity:1;" d="M 97.914062 140.460938 C 97.914062 140.890625 99.664062 143.46875 101.878906 145.832031 C 105.605469 150.125 106.421875 150.125 121.34375 148.191406 C 136.847656 145.832031 149.085938 142.824219 150.136719 140.675781 C 150.484375 140.03125 138.828125 139.601562 124.375 139.601562 C 109.804688 139.601562 97.914062 140.03125 97.914062 140.460938 Z M 97.914062 140.460938 "/>
</g>
</svg>
